<?xml version="1.0" encoding="utf-8"?>
<!-- Generator: Adobe Illustrator 16.0.0, SVG Export Plug-In . SVG Version: 6.00 Build 0)  -->
<!DOCTYPE svg PUBLIC "-//W3C//DTD SVG 1.1 Tiny//EN" "http://www.w3.org/Graphics/SVG/1.1/DTD/svg11-tiny.dtd">
<svg version="1.1" baseProfile="tiny" id="Layer_1" xmlns="http://www.w3.org/2000/svg" xmlns:xlink="http://www.w3.org/1999/xlink"
	 x="0px" y="0px" width="512px" height="512px" viewBox="0 0 512 512" xml:space="preserve">
<g>
	<g>
		<path fill="#EF4136" d="M488.182,338.339c0,0-12.801-100.174-15.589-121.914c-2.408-18.74-2.802-53.083-28.673-76.081
			c-20.204-17.966-42.436-26.578-58.579-27.396c-18.065-0.922-37.481,0.895-66.207,23.369c-1.835,1.437-6.307,2.99-8.594,3.034
			c-10.008,0.188-43.823,0.085-43.823,0.085s-40.658,0.103-50.671-0.085c-2.273-0.044-6.759-1.598-8.594-3.034
			c-28.726-22.474-48.143-24.291-66.202-23.369c-16.145,0.819-38.376,9.431-58.584,27.396c-25.866,22.998-26.26,57.34-28.664,76.081
			c-2.797,21.739-15.603,121.914-15.603,121.914s-8.782,48.957,43.979,71.564c11.082,4.754,51.866,7.18,72.983-31.188
			c7.081-12.854,19.219-30.933,27.303-44.396c0.188-0.317,1.925-2.686,4.74-1.298c32.906,16.185,57.402-12.066,57.259-33.188
			c-0.004-1.969,0.107-6.427,6.109-6.427c5.421,0,15.943,0.026,15.943,0.026s3.675-0.026,9.1-0.026c6.002,0,6.118,4.458,6.104,6.427
			c-0.139,21.122,24.354,49.373,57.265,33.188c2.815-1.388,4.547,0.98,4.735,1.298c8.083,13.464,20.23,31.542,27.303,44.396
			c21.117,38.367,61.905,35.941,72.992,31.188C496.968,387.296,488.182,338.339,488.182,338.339z"/>
	</g>
	<g>
		<path fill="#F15A29" d="M498.146,329.544c0,0-12.801-100.17-15.59-121.909c-2.412-18.736-2.802-53.08-28.672-76.081
			c-20.204-17.97-42.44-26.578-58.585-27.396c-18.06-0.922-37.476,0.891-66.202,23.373c-1.835,1.432-6.319,2.98-8.594,3.03
			c-10.008,0.193-43.823,0.081-43.823,0.081s-40.663,0.112-50.671-0.081c-2.282-0.049-6.758-1.598-8.598-3.03
			c-28.722-22.482-48.143-24.295-66.198-23.373c-16.148,0.819-38.376,9.426-58.589,27.396
			c-25.861,23.001-26.26,57.345-28.663,76.081c-2.797,21.738-15.599,121.909-15.599,121.909s-8.781,48.961,43.971,71.569
			c11.092,4.753,51.871,7.175,72.992-31.184c7.076-12.859,19.22-30.938,27.303-44.4c0.188-0.322,1.92-2.686,4.74-1.298
			c32.902,16.18,57.398-12.067,57.26-33.193c-0.01-1.965,0.107-6.427,6.109-6.427c5.42,0,15.942,0.031,15.942,0.031
			s3.675-0.031,9.096-0.031c6.002,0,6.118,4.462,6.109,6.427c-0.144,21.126,24.353,49.373,57.26,33.193
			c2.814-1.388,4.552,0.976,4.739,1.298c8.079,13.463,20.223,31.541,27.303,44.4c21.117,38.358,61.901,35.937,72.988,31.184
			C506.927,378.505,498.146,329.544,498.146,329.544z"/>
	</g>
	<g>
		<path fill="#FFFFFF" d="M416.971,185.135c0,7.814-6.333,14.152-14.152,14.152c-7.823,0-14.157-6.338-14.157-14.152
			c0-7.824,6.334-14.157,14.157-14.157C410.638,170.978,416.971,177.311,416.971,185.135z"/>
		<path fill="#FFFFFF" d="M444.977,213.135c0,7.819-6.338,14.157-14.157,14.157s-14.157-6.338-14.157-14.157
			c0-7.814,6.338-14.161,14.157-14.161S444.977,205.321,444.977,213.135z"/>
		<path fill="#FFFFFF" d="M416.971,241.145c0,7.815-6.333,14.153-14.152,14.153c-7.823,0-14.157-6.338-14.157-14.153
			c0-7.823,6.334-14.156,14.157-14.156C410.638,226.989,416.971,233.322,416.971,241.145z"/>
		<path fill="#FFFFFF" d="M388.966,213.135c0,7.819-6.338,14.157-14.157,14.157c-7.823,0-14.157-6.338-14.157-14.157
			c0-7.814,6.334-14.161,14.157-14.161C382.628,198.974,388.966,205.321,388.966,213.135z"/>
	</g>
	<polygon fill="#FFFFFF" points="188.573,201.297 158.567,201.297 158.567,171.291 138.421,171.291 138.421,201.297 
		108.415,201.297 108.415,221.438 138.421,221.438 138.421,251.454 158.567,251.454 158.567,221.438 188.573,221.438 	"/>
	<path fill="#FFFFFF" d="M242.945,287.623c0,14.99-12.151,27.146-27.15,27.146c-14.989,0-27.142-12.156-27.142-27.146
		c0-14.994,12.152-27.15,27.142-27.15C230.794,260.473,242.945,272.629,242.945,287.623z"/>
	<g>
		<path fill-rule="evenodd" fill="#F1F0F0" d="M269.854,193.554c0,51.234-40.968,92.906-91.93,94.042
			c-0.434,0.014-70.267,0.026-70.544,0.026c-51.96,0-94.073-42.118-94.073-94.069c0-51.952,42.113-94.069,94.073-94.069
			c0.277,0,70.258,0.018,70.755,0.027C229.003,100.76,269.854,142.39,269.854,193.554z"/>
	</g>
	<path fill="#FFFFFF" d="M357.858,287.623c0,14.99-12.156,27.146-27.146,27.146c-14.994,0-27.15-12.156-27.15-27.146
		c0-14.994,12.156-27.15,27.15-27.15C345.702,260.473,357.858,272.629,357.858,287.623z"/>
</g>
</svg>
