<?xml version="1.0" encoding="utf-8"?>
<!-- Generator: Adobe Illustrator 16.0.0, SVG Export Plug-In . SVG Version: 6.00 Build 0)  -->
<!DOCTYPE svg PUBLIC "-//W3C//DTD SVG 1.1 Tiny//EN" "http://www.w3.org/Graphics/SVG/1.1/DTD/svg11-tiny.dtd">
<svg version="1.1" baseProfile="tiny" id="Layer_1" xmlns="http://www.w3.org/2000/svg" xmlns:xlink="http://www.w3.org/1999/xlink"
	 x="0px" y="0px" width="128px" height="128px" viewBox="0 0 128 128" overflow="scroll" xml:space="preserve">
<g>
	<path fill-rule="evenodd" fill="#FFFFFF" d="M42.78,55.771c-0.73-0.079-1.391-0.079-2.015-0.231
		c-1.042-0.256-1.552-1.024-1.507-2.091c0.042-0.962,0.777-1.202,1.514-1.435c-0.578-1.365-0.302-1.83,1.234-2.238
		c0.302-0.081,0.787-0.313,0.795-0.493c0.024-0.514,0.325-1.15-0.395-1.521c-0.461-0.238-0.52-0.7-0.174-1.05
		c0.389-0.396,0.349-0.78,0.178-1.21c-0.968-2.443-1.904-4.899-2.932-7.313c-0.513-1.202-0.47-1.593,0.785-1.983
		c2.007-0.622,4.042-1.161,5.894-1.688c0.46-0.558,0.815-1.114,1.286-1.539c0.817-0.733,1.022-1.935,0.383-2.813
		c-0.357-0.494-0.828-0.372-1.27-0.188c-1.036,0.436-1.272,0.134-1.37-0.934c-0.07-0.747-0.061-1.514,0.03-2.259
		c0.093-0.777,0.542-0.98,1.28-0.704c0.098,0.036,0.191,0.11,0.288,0.114c0.444,0.019,0.889,0.019,1.333,0.026
		c-0.021-0.525,0.01-1.059-0.083-1.572c-0.051-0.279-0.306-0.52-0.559-0.918c1.482,0,2.837,0,4.349,0
		c-0.231,0.349-0.457,0.554-0.509,0.796c-0.101,0.452-0.291,1.053-0.089,1.356c0.204,0.308,0.828,0.406,1.283,0.459
		c0.434,0.051,1.117-0.272,1.28-0.08c0.271,0.318,0.224,0.915,0.294,1.397c0.029,0.206,0.023,0.417,0.021,0.626
		c-0.011,1.243-0.104,1.319-1.34,1.118c-0.835-0.135-1.27,0.119-1.555,0.905c-0.45,1.245-0.165,2.073,0.852,2.882
		c0.463,0.368,0.801,0.89,1.357,1.528c2.202,0.424,4.625,1.112,6.86,2.348c0.859,0.476,0.871,0.828,0.398,1.688
		c-1.254,2.281-2.44,4.597-3.645,6.904c-0.259,0.495-0.344,0.908,0.257,1.317c0.604,0.413,0.528,0.914-0.147,1.256
		c-0.415,0.212-0.653,0.479-0.504,0.898c0.092,0.257,0.359,0.482,0.598,0.655c0.378,0.272,0.81,0.468,1.191,0.734
		c0.612,0.427,0.785,0.945,0.346,1.384c0.505,0.625,1.155,1.133,1.393,1.789c0.462,1.28-0.38,2.281-1.762,2.309
		c-0.52,0.011-1.044-0.04-1.555,0.028c-0.197,0.025-0.492,0.282-0.52,0.467c-0.847,5.8-1.105,11.616-0.507,17.461
		c0.363,3.547,1.096,6.992,2.557,10.264c0.305,0.679,0.654,1.24,1.397,1.567c1.158,0.51,1.679,1.488,1.727,2.751
		c0.011,0.313,0.133,0.665,0.317,0.919c0.828,1.145,1.859,2.007,3.275,2.391c1.201,0.326,2.356,0.831,2.804,2.142
		c0.43,1.26,0.222,2.421-0.822,3.384c0.612,0.386,1.214,0.722,1.768,1.123c0.915,0.665,1.455,1.557,1.097,2.702
		c-0.347,1.106-0.957,2.028-2.285,2.163c-2.353,0.24-4.698,0.657-7.055,0.716c-5.898,0.15-11.803,0.241-17.703,0.162
		c-3.693-0.051-7.402-0.249-11.037-1.069c-0.884-0.198-1.663-0.484-1.874-1.503c-0.254-1.217-0.061-2.303,1.01-3.064
		c0.478-0.34,1.02-0.582,1.457-0.825c-0.494-0.498-1.172-0.938-1.502-1.561c-1.053-1.993-0.631-3.79,1.555-4.771
		c0.847-0.381,1.631-0.919,2.405-1.442c0.584-0.394,0.876-0.948,0.904-1.715c0.051-1.426,1.047-2.175,2.262-2.592
		c0.518-0.177,0.771-0.462,0.973-0.9c1.572-3.436,2.525-7.053,3.159-10.762c0.884-5.169,1.06-10.371,0.784-15.597
		C42.951,57.557,42.856,56.678,42.78,55.771z"/>
	<path fill-rule="evenodd" fill="#FFFFFF" d="M71.253,81.486c-0.201-0.655-0.426-1.337-0.434-2.009
		c-0.012-1.021,0.536-1.836,1.375-2.406c0.734-0.498,1.157-1.167,1.363-2.02c0.073-0.308,0.254-0.619,0.464-0.858
		c1.155-1.323,2.345-2.613,3.498-3.938c0.361-0.412,0.714-0.757,1.394-0.605c-0.111-1.087,0.102-1.936,1.419-1.995
		c-0.27-1.489,1.182-1.803,1.855-2.782c-1.072-1.305-2.652-1.34-4.148-1.538c-1.685-0.221-2.91,0.632-3.904,1.842
		c-0.516-0.592-0.961-1.167-1.479-1.669c-0.367-0.359-0.833-0.615-1.254-0.917c-0.17-0.12-0.421-0.2-0.497-0.359
		c-0.114-0.246-0.146-0.55-0.13-0.825c0.004-0.06,0.348-0.145,0.537-0.146c1.275-0.013,2.551-0.003,3.826-0.013
		c0.271,0,0.544-0.021,0.809-0.075c0.44-0.092,0.715-0.354,0.673-0.833c-0.038-0.464-0.357-0.72-0.773-0.783
		c-0.464-0.068-0.562,0.341-0.687,0.673c-0.035,0.093-0.048,0.2-0.078,0.339c-1.209,0-2.411,0-3.666,0c0-0.459,0-0.888,0-1.287
		c-0.436-0.24-0.818-0.447-1.36-0.743c0.495-0.261,0.812-0.428,1.174-0.619c-0.108-0.095-0.189-0.185-0.287-0.248
		c-0.742-0.482-0.733-0.785,0.06-1.205c0.311-0.165,0.663-0.251,0.978-0.414c0.433-0.225,0.842-0.496,1.271-0.725
		c0.263-0.142,0.54-0.329,0.819-0.351c2.813-0.208,5.636-0.324,8.44-0.602c1.417-0.14,2.889-0.142,4.209-0.833
		c0.765-0.402,1.454-0.843,1.868-1.672c0.428-0.855,1.017-1.024,2.067-0.841c1.777,0.309,3.256,1.169,4.475,2.462
		c1.34,1.423,2.619,2.966,2.871,4.95c0.196,1.53,0.111,3.136-0.109,4.672c-0.48,3.345-1.437,6.584-2.466,9.807
		c-1.224,3.831-1.031,7.619,0.791,11.257c0.25,0.499,0.607,0.944,0.918,1.413c0.151,0.225,0.335,0.431,0.463,0.669
		c0.337,0.628,0.211,1.004-0.489,1.157c-0.667,0.145-1.368,0.111-2.045,0.226c-0.615,0.105-1.216,0.3-1.656,0.413
		c-0.033,0.725-0.133,1.233-0.057,1.712c0.083,0.536,0.22,1.128,0.534,1.542c0.392,0.517,0.982,0.885,1.503,1.299
		c0.226,0.18,0.502,0.297,0.736,0.472c1.721,1.28,1.919,3.069,0.528,4.711c-0.121,0.142-0.244,0.281-0.398,0.457
		c0.204,0.08,0.381,0.13,0.535,0.217c0.474,0.257,0.915,0.587,0.906,1.177c-0.01,0.752-0.035,1.517-0.194,2.243
		c-0.076,0.343-0.426,0.79-0.745,0.886c-1.349,0.409-2.715,0.82-4.107,1.017c-3.924,0.554-7.88,0.554-11.829,0.384
		c-2.667-0.116-5.337-0.311-7.913-1.114c-0.159-0.05-0.317-0.103-0.474-0.163c-1.557-0.611-1.728-0.859-1.761-2.527
		c-0.003-0.146-0.01-0.292-0.014-0.438c-0.033-1.417-0.033-1.417,1.069-2.205c-0.284-0.359-0.59-0.7-0.848-1.075
		c-0.885-1.296-0.69-2.618,0.537-3.597c0.291-0.233,0.635-0.397,0.961-0.582c1.351-0.769,2.187-1.829,2.092-3.482
		c-0.021-0.349,0.159-0.712,0.265-1.136"/>
</g>
</svg>
