<?xml version="1.0" encoding="utf-8"?>
<!-- Generator: Adobe Illustrator 16.0.0, SVG Export Plug-In . SVG Version: 6.00 Build 0)  -->
<!DOCTYPE svg PUBLIC "-//W3C//DTD SVG 1.1 Tiny//EN" "http://www.w3.org/Graphics/SVG/1.1/DTD/svg11-tiny.dtd">
<svg version="1.1" baseProfile="tiny" id="Layer_1" xmlns="http://www.w3.org/2000/svg" xmlns:xlink="http://www.w3.org/1999/xlink"
	 x="0px" y="0px" width="128px" height="128px" viewBox="0 0 128 128" overflow="scroll" xml:space="preserve">
<g>
	<g>
		<circle fill="#FFFFFF" stroke="#FFFFFF" stroke-width="3" stroke-miterlimit="10" cx="100.297" cy="22.463" r="7.69"/>
		<circle fill="#FFFFFF" stroke="#FFFFFF" stroke-width="3" stroke-miterlimit="10" cx="75.73" cy="50.086" r="7.689"/>
		<path fill="#FFFFFF" stroke="#FFFFFF" stroke-width="3" stroke-miterlimit="10" d="M46.766,72.407
			c3.002-3.003,7.869-2.999,10.872,0.004c3.002,3.001,3.005,7.868,0.002,10.871c-3.004,3.005-7.873,3.003-10.875,0.001
			C43.762,80.28,43.761,75.412,46.766,72.407z"/>
		<path fill="#FFFFFF" stroke="#FFFFFF" stroke-width="3" stroke-miterlimit="10" d="M22.266,100.1
			c3.001-3,7.868-3.001,10.873,0.004c3.004,3.004,3.003,7.87,0.002,10.871c-3.004,3.004-7.87,3.005-10.874,0
			C19.262,107.971,19.262,103.104,22.266,100.1z"/>
	</g>
	<g>
		<circle fill="none" stroke="#FFFFFF" stroke-width="3" stroke-miterlimit="10" cx="100.095" cy="105.537" r="7.689"/>
		<path fill="none" stroke="#FFFFFF" stroke-width="3" stroke-miterlimit="10" d="M94.727,72.407
			c3.003-3.003,7.867-2.999,10.87,0.005c3.003,3,3.007,7.867,0.004,10.87c-3.005,3.005-7.873,3.003-10.876,0.001
			C91.722,80.28,91.722,75.412,94.727,72.407z"/>
		<circle fill="none" stroke="#FFFFFF" stroke-width="3" stroke-miterlimit="10" cx="100.164" cy="50.085" r="7.689"/>
		<path fill="none" stroke="#FFFFFF" stroke-width="3" stroke-miterlimit="10" d="M70.225,100.1
			c3.002-3.001,7.868-3.001,10.873,0.004c3.004,3.003,3.004,7.87,0.003,10.871c-3.005,3.004-7.871,3.004-10.874,0
			C67.222,107.971,67.221,103.104,70.225,100.1z"/>
		<path fill="none" stroke="#FFFFFF" stroke-width="3" stroke-miterlimit="10" d="M70.293,72.408c3.002-3.003,7.869-3,10.872,0.003
			c3.001,3.002,3.005,7.868,0.002,10.871c-3.005,3.005-7.873,3.004-10.875,0.001C67.289,80.28,67.288,75.413,70.293,72.408z"/>
		<circle fill="none" stroke="#FFFFFF" stroke-width="3" stroke-miterlimit="10" cx="75.864" cy="22.464" r="7.69"/>
		<circle fill="none" stroke="#FFFFFF" stroke-width="3" stroke-miterlimit="10" cx="52.136" cy="105.537" r="7.69"/>
		<circle fill="none" stroke="#FFFFFF" stroke-width="3" stroke-miterlimit="10" cx="52.204" cy="50.085" r="7.689"/>
		<circle fill="none" stroke="#FFFFFF" stroke-width="3" stroke-miterlimit="10" cx="52.338" cy="22.463" r="7.69"/>
		<path fill="none" stroke="#FFFFFF" stroke-width="3" stroke-miterlimit="10" d="M22.333,72.408c3.003-3.003,7.868-3,10.871,0.003
			c3.002,3.002,3.005,7.868,0.003,10.871c-3.005,3.005-7.873,3.004-10.875,0.001C19.329,80.28,19.329,75.413,22.333,72.408z"/>
		<circle fill="none" stroke="#FFFFFF" stroke-width="3" stroke-miterlimit="10" cx="27.771" cy="50.086" r="7.689"/>
		<circle fill="none" stroke="#FFFFFF" stroke-width="3" stroke-miterlimit="10" cx="27.905" cy="22.464" r="7.69"/>
	</g>
</g>
</svg>
